<svg width="59" height="59" viewBox="0 0 59 59" fill="none" xmlns="http://www.w3.org/2000/svg">
<path d="M35.9055 29.9039L56.7069 9.15083C57.6178 8.23991 58.1296 7.00443 58.1296 5.71618C58.1296 4.42794 57.6178 3.19246 56.7069 2.28153C55.796 1.37061 54.5605 0.858856 53.2723 0.858856C51.984 0.858856 50.7485 1.37061 49.8376 2.28153L29.0846 23.0829L8.33157 2.28153C7.42064 1.37061 6.18516 0.858856 4.89692 0.858856C3.60867 0.858856 2.37319 1.37061 1.46227 2.28153C0.551343 3.19246 0.0395897 4.42794 0.0395897 5.71618C0.0395897 7.00443 0.551343 8.23991 1.46227 9.15083L22.2637 29.9039L1.46227 50.6569C1.00885 51.1066 0.64897 51.6416 0.403375 52.2311C0.15778 52.8206 0.0313339 53.4529 0.0313339 54.0915C0.0313339 54.7301 0.15778 55.3624 0.403375 55.9519C0.64897 56.5414 1.00885 57.0765 1.46227 57.5262C1.91198 57.9796 2.44702 58.3395 3.03651 58.5851C3.62601 58.8307 4.25831 58.9571 4.89692 58.9571C5.53553 58.9571 6.16782 58.8307 6.75732 58.5851C7.34682 58.3395 7.88186 57.9796 8.33157 57.5262L29.0846 36.7248L49.8376 57.5262C50.2873 57.9796 50.8224 58.3395 51.4119 58.5851C52.0014 58.8307 52.6337 58.9571 53.2723 58.9571C53.9109 58.9571 54.5432 58.8307 55.1327 58.5851C55.7222 58.3395 56.2572 57.9796 56.7069 57.5262C57.1603 57.0765 57.5202 56.5414 57.7658 55.9519C58.0114 55.3624 58.1378 54.7301 58.1378 54.0915C58.1378 53.4529 58.0114 52.8206 57.7658 52.2311C57.5202 51.6416 57.1603 51.1066 56.7069 50.6569L35.9055 29.9039Z" fill="#00BFFF"/>
</svg>
