<svg width="60" height="54" viewBox="0 0 60 54" fill="none" xmlns="http://www.w3.org/2000/svg">
<path d="M52.3146 33.4517H22.2449L22.9163 36.7342H50.4496C52.0293 36.7342 53.2002 38.2011 52.8501 39.7416L52.2842 42.2318C54.2015 43.1624 55.5235 45.1278 55.5235 47.4021C55.5235 50.6027 52.9058 53.1919 49.6947 53.1458C46.6356 53.1017 44.1197 50.6192 44.0371 47.5608C43.992 45.8901 44.6613 44.3759 45.7607 43.299H24.2558C25.3202 44.3417 25.9815 45.7943 25.9815 47.4021C25.9815 50.6654 23.2604 53.2932 19.9634 53.14C17.0359 53.0041 14.655 50.6387 14.5011 47.712C14.3823 45.4518 15.5716 43.4597 17.3785 42.4205L10.1728 7.19225H3.00449C1.64484 7.19225 0.542664 6.09007 0.542664 4.73043V3.08921C0.542664 1.72956 1.64484 0.62738 3.00449 0.62738H13.5215C14.691 0.62738 15.699 1.45014 15.9334 2.59582L16.8736 7.19225H57.1637C58.7434 7.19225 59.9144 8.6592 59.5643 10.1997L54.7152 31.5355C54.4605 32.6564 53.4641 33.4517 52.3146 33.4517ZM41.8838 20.322H37.4701V14.1674C37.4701 13.4877 36.9189 12.9365 36.2392 12.9365H33.7773C33.0976 12.9365 32.5464 13.4877 32.5464 14.1674V20.322H28.1327C27.036 20.322 26.4868 21.6479 27.2623 22.4233L34.1379 29.2989C34.6186 29.7795 35.3979 29.7795 35.8787 29.2989L42.7543 22.4233C43.5297 21.6479 42.9805 20.322 41.8838 20.322Z" fill="#00BFFF"/>
</svg>
