<svg width="59" height="52" viewBox="0 0 59 52" fill="none" xmlns="http://www.w3.org/2000/svg">
<path d="M19.4784 51.8589C21.8651 51.8589 23.8 49.924 23.8 47.5373C23.8 45.1505 21.8651 43.2157 19.4784 43.2157C17.0917 43.2157 15.1568 45.1505 15.1568 47.5373C15.1568 49.924 17.0917 51.8589 19.4784 51.8589Z" fill="#00BFFF"/>
<path d="M49.7294 51.8589C52.1161 51.8589 54.051 49.924 54.051 47.5373C54.051 45.1505 52.1161 43.2157 49.7294 43.2157C47.3427 43.2157 45.4078 45.1505 45.4078 47.5373C45.4078 49.924 47.3427 51.8589 49.7294 51.8589Z" fill="#00BFFF"/>
<path d="M57.4002 7.66809C57.0966 7.29677 56.7142 6.99771 56.2806 6.79261C55.8471 6.58751 55.3733 6.48153 54.8937 6.48236H13.7915L12.9636 1.78535C12.8754 1.28503 12.6136 0.831815 12.2244 0.50531C11.8351 0.178805 11.3433 -0.000106745 10.8353 4.77807e-08H2.19212C1.61904 4.77807e-08 1.06944 0.227654 0.664213 0.63288C0.258987 1.03811 0.0313339 1.58771 0.0313339 2.16079C0.0313339 2.73386 0.258987 3.28347 0.664213 3.68869C1.06944 4.09392 1.61904 4.32157 2.19212 4.32157H9.0229L15.1892 39.2696C15.2775 39.7699 15.5393 40.2231 15.9285 40.5496C16.3177 40.8761 16.8096 41.055 17.3176 41.0549H51.8902C52.4633 41.0549 53.0129 40.8273 53.4181 40.422C53.8233 40.0168 54.051 39.4672 54.051 38.8941C54.051 38.3211 53.8233 37.7715 53.4181 37.3662C53.0129 36.961 52.4633 36.7334 51.8902 36.7334H19.13L18.3683 32.4118H51.0043C51.7536 32.4108 52.4796 32.151 53.0594 31.6763C53.6392 31.2016 54.0372 30.5411 54.186 29.8067L58.0754 10.3596C58.1691 9.88897 58.1572 9.40339 58.0404 8.93793C57.9236 8.47248 57.705 8.03875 57.4002 7.66809Z" fill="#00BFFF"/>
</svg>
