<svg width="54" height="47" viewBox="0 0 54 47" fill="none" xmlns="http://www.w3.org/2000/svg">
<path d="M31.2283 0.146362H51.1183C52.4915 0.146362 53.6046 1.25948 53.6046 2.63261V19.2076C53.6046 20.5807 52.4915 21.6939 51.1183 21.6939H31.2283C29.8552 21.6939 28.7421 20.5807 28.7421 19.2076V2.63261C28.7421 1.25948 29.8552 0.146362 31.2283 0.146362ZM22.9408 0.146362H3.05084C1.67771 0.146362 0.56459 1.25948 0.56459 2.63261V19.2076C0.56459 20.5807 1.67771 21.6939 3.05084 21.6939H22.9408C24.314 21.6939 25.4271 20.5807 25.4271 19.2076V2.63261C25.4271 1.25948 24.314 0.146362 22.9408 0.146362ZM0.56459 27.4951V44.0701C0.56459 45.4432 1.67771 46.5564 3.05084 46.5564H22.9408C24.314 46.5564 25.4271 45.4432 25.4271 44.0701V27.4951C25.4271 26.122 24.314 25.0089 22.9408 25.0089H3.05084C1.67771 25.0089 0.56459 26.122 0.56459 27.4951ZM31.2283 46.5564H51.1183C52.4915 46.5564 53.6046 45.4432 53.6046 44.0701V27.4951C53.6046 26.122 52.4915 25.0089 51.1183 25.0089H31.2283C29.8552 25.0089 28.7421 26.122 28.7421 27.4951V44.0701C28.7421 45.4432 29.8552 46.5564 31.2283 46.5564Z" fill="#00BFFF"/>
</svg>
