<svg width="30" height="30" viewBox="0 0 139 115" fill="none" xmlns="http://www.w3.org/2000/svg">
<g clip-path="url(#clip0_8_36)">
<path d="M61.4255 115C102.776 115 141.436 69.8429 137.766 26.4921C137.766 -6.42808 89.3192 -2.87668 54.0851 7.82723C34.266 13.8482 0.5 36.9227 0.5 69.8429C0.5 102.763 12.2447 111.99 61.4255 115Z" fill="#FFA800"/>
<path d="M70.6077 76.7887C83.3477 76.7887 93.6749 68.2919 93.6749 57.8101C93.6749 47.3285 83.3477 38.8315 70.6077 38.8315C57.8678 38.8315 47.5402 47.3285 47.5402 57.8101C47.5402 68.2919 57.8678 76.7887 70.6077 76.7887Z" fill="#333333"/>
<path d="M93.6749 56.9342C87.1875 58.6861 83.3477 64.2338 70.6077 64.2338C58.7135 61.6057 54.7488 61.6057 47.5402 56.9342C54.7488 52.2625 57.8679 48.1748 70.6077 48.1748C79.2576 48.1748 85.7458 51.0946 93.6749 56.9342Z" fill="#00BFFF"/>
<path d="M67.7242 9.63351L93.6749 39.4154L67.7242 27.7363L47.5402 39.4154L67.7242 9.63351Z" fill="#1A2B3C"/>
<path d="M73.4903 106.161L47.846 76.2047L73.676 88.0587L93.9796 76.5153L73.4903 106.161Z" fill="#1A2B3C"/>
<path d="M130.481 55.1822L93.7726 76.2679L108.135 55.2205L93.675 38.8943L130.481 55.1822Z" fill="#1A2B3C"/>
<path d="M10.7986 60.4382L47.5907 39.4479L33.1452 60.4575L47.5402 76.8212L10.7986 60.4382Z" fill="#1A2B3C"/>
<path d="M79.2576 54.3064C79.2576 58.3377 75.3848 60.7296 70.6077 60.7296C65.8302 60.7296 61.9573 58.3377 61.9573 54.3064C61.9573 50.275 65.8302 49.6346 70.6077 49.6346C75.3848 49.6346 79.2576 50.275 79.2576 54.3064Z" fill="black" fill-opacity="0.7"/>
</g>
<defs>
<clipPath id="clip0_8_36">
<rect width="138" height="115" fill="white" transform="translate(0.5)"/>
</clipPath>
</defs>
</svg>
