<svg width="83" height="84" viewBox="0 0 83 84" fill="none" xmlns="http://www.w3.org/2000/svg">
<g clip-path="url(#clip0_19_185)">
<path d="M45.9048 37.2157L45.939 7.83225C45.939 6.54401 45.4272 5.30852 44.5163 4.3976C43.6054 3.48667 42.3699 2.97492 41.0817 2.97492C39.7934 2.97492 38.5579 3.48667 37.647 4.3976C36.7361 5.30852 36.2243 6.544 36.2243 7.83224L36.2585 37.2157L6.87514 37.1815C5.58689 37.1815 4.35141 37.6932 3.44049 38.6041C2.52956 39.5151 2.01781 40.7505 2.01781 42.0388C2.01781 43.327 2.52956 44.5625 3.44049 45.4734C4.35141 46.3844 5.58689 46.8961 6.87514 46.8961L36.2585 46.8619L36.2243 76.2453C36.2217 76.8839 36.3456 77.5167 36.5887 78.1072C36.8319 78.6977 37.1896 79.2342 37.6412 79.6858C38.0927 80.1374 38.6293 80.495 39.2198 80.7382C39.8103 80.9814 40.4431 81.1052 41.0817 81.1026C41.7203 81.1052 42.3531 80.9814 42.9436 80.7382C43.5341 80.4951 44.0706 80.1374 44.5222 79.6858C44.9737 79.2342 45.3314 78.6977 45.5746 78.1072C45.8178 77.5167 45.9416 76.8839 45.939 76.2453L45.9048 46.8619L75.2882 46.8961C75.9268 46.8987 76.5596 46.7749 77.1501 46.5317C77.7406 46.2885 78.2771 45.9308 78.7287 45.4793C79.1803 45.0277 79.5379 44.4912 79.7811 43.9007C80.0243 43.3102 80.1481 42.6774 80.1455 42.0388C80.1481 41.4002 80.0243 40.7674 79.7811 40.1769C79.5379 39.5864 79.1803 39.0499 78.7287 38.5983C78.2771 38.1467 77.7406 37.789 77.1501 37.5459C76.5596 37.3027 75.9268 37.1788 75.2882 37.1815L45.9048 37.2157Z" fill="#00BFFF"/>
</g>
<defs>
<clipPath id="clip0_19_185">
<rect width="58.1065" height="58.0983" fill="white" transform="translate(0 42.0446) rotate(-45)"/>
</clipPath>
</defs>
</svg>
