<svg width="88" height="73" viewBox="0 0 88 73" fill="none" xmlns="http://www.w3.org/2000/svg">
<path d="M47.3444 5.87205C46.8196 4.52978 45.5258 3.64636 44.0846 3.64636C42.6434 3.64636 41.3495 4.52978 40.8248 5.87205L33.0511 25.7578H7.46891C5.89757 25.7578 4.51884 26.805 4.09724 28.3187C3.67564 29.8325 4.31453 31.4416 5.65964 32.2539L25.7653 44.3953L18.1951 63.7606C17.6492 65.1569 18.0533 66.7457 19.1998 67.7116C20.3464 68.6776 21.9808 68.806 23.2641 68.031L44.0846 55.4579L64.905 68.031C66.1884 68.806 67.8228 68.6776 68.9693 67.7116C70.1159 66.7457 70.5199 65.1569 69.9741 63.7606L62.4038 44.3953L82.5095 32.2539C83.8546 31.4416 84.4935 29.8325 84.0719 28.3187C83.6503 26.805 82.2716 25.7578 80.7003 25.7578H55.1181L47.3444 5.87205Z" fill="#00BFFF" stroke="#00BFFF" stroke-width="7" stroke-linejoin="round"/>
</svg>
