<svg width="54" height="54" viewBox="0 0 54 54" fill="none" xmlns="http://www.w3.org/2000/svg">
<path d="M0.56459 26.6742V5.52884C0.56459 2.78257 2.79082 0.556335 5.53709 0.556335H26.6825C28.0012 0.556342 29.266 1.08023 30.1985 2.01276L52.1482 23.9624C54.0901 25.9043 54.0901 29.0527 52.1482 30.9946L31.0028 52.1399C29.061 54.0818 25.9125 54.0818 23.9707 52.1399L2.02102 30.1903C1.08849 29.2578 0.564597 27.993 0.56459 26.6742ZM12.1671 7.18634C9.42083 7.18634 7.19459 9.41257 7.19459 12.1588C7.19459 14.9051 9.42083 17.1313 12.1671 17.1313C14.9134 17.1313 17.1396 14.9051 17.1396 12.1588C17.1396 9.41257 14.9134 7.18634 12.1671 7.18634Z" fill="#00BFFF"/>
</svg>
